<svg version="1.1" id="Layer_1" xmlns="http://www.w3.org/2000/svg" xmlns:xlink="http://www.w3.org/1999/xlink" x="0px" y="0px"
	 width="100%" viewBox="0 0 2000 1200" enable-background="new 0 0 2000 1200" xml:space="preserve">
<path fill="#482F82" opacity="1.000000" stroke="none" 
	d="
M1334.000000,1201.000000 
	C889.333496,1201.000000 445.166931,1201.000000 1.000298,1201.000000 
	C1.000199,801.000244 1.000199,401.000488 1.000099,1.000566 
	C667.666199,1.000377 1334.332397,1.000377 2000.999023,1.000189 
	C2000.999268,400.999420 2000.999268,800.998840 2000.999634,1200.999146 
	C1778.833374,1201.000000 1556.666626,1201.000000 1334.000000,1201.000000 
M865.940857,436.590668 
	C866.289612,436.695404 866.638367,436.800110 867.908325,437.099792 
	C881.608032,437.059296 895.307739,437.018768 909.760010,437.292694 
	C935.342285,437.292694 960.924500,437.292694 986.961243,437.292694 
	C986.961243,477.029510 986.961243,515.969727 986.029175,554.944275 
	C946.086487,554.944275 906.143738,554.944275 866.189026,554.944275 
	C865.945801,556.745300 865.706909,557.723450 865.696899,558.704041 
	C865.423767,585.356750 864.982056,612.009644 864.974304,638.662659 
	C864.966614,665.316284 865.168884,691.974609 865.702148,718.622375 
	C866.191467,743.078857 865.635742,767.706482 868.381592,791.936707 
	C874.239563,843.630066 903.175903,877.887695 952.168701,895.025146 
	C981.878174,905.417419 1012.449829,906.994690 1043.402100,902.316833 
	C1065.020264,899.049561 1085.565063,892.629150 1104.094116,880.591492 
	C1106.858765,878.795349 1108.087036,876.851501 1108.100952,873.367798 
	C1108.220947,843.214783 1108.577393,813.062683 1108.840698,782.910095 
	C1108.852783,781.513611 1108.649292,780.115295 1108.503052,778.132202 
	C1102.836792,780.728760 1097.682251,782.986938 1092.617065,785.430115 
	C1072.284302,795.238159 1051.053711,797.968018 1028.848389,793.976746 
	C1006.706665,789.996887 993.794067,778.063354 989.255188,756.542603 
	C988.092163,751.028564 987.307251,745.322021 987.279175,739.699219 
	C987.049866,693.714355 987.043396,647.728394 986.963989,601.742798 
	C986.937012,586.096924 986.895020,570.451050 987.780701,555.156982 
	C1028.008423,555.156982 1068.236206,555.156982 1108.567627,555.156982 
	C1108.567627,515.491150 1108.567627,476.595947 1108.567627,437.140991 
	C1106.343018,437.140991 1104.387207,437.140991 1102.431519,437.140991 
	C1065.784546,437.141022 1029.137573,437.157776 992.490662,437.092560 
	C990.628601,437.089264 988.767822,436.380493 987.118469,435.083862 
	C987.135010,401.025360 987.164551,366.966888 987.155823,332.908386 
	C987.154297,326.935791 986.992310,320.963287 986.978394,314.408173 
	C986.651978,314.270050 986.325562,314.131897 985.162170,313.736450 
	C947.098694,313.616730 909.035156,313.494354 870.971619,313.392212 
	C869.989136,313.389587 869.005920,313.608734 867.474976,313.456299 
	C866.965454,314.644470 866.455933,315.832642 865.726746,317.933136 
	C865.709229,355.471283 865.687622,393.009399 865.687073,430.547546 
	C865.687012,432.364136 865.872131,434.180756 865.940857,436.590668 
M1311.290405,893.202820 
	C1342.182007,902.814209 1373.767700,906.694031 1406.015747,903.938110 
	C1471.909790,898.306641 1525.372192,869.742249 1564.906006,816.364929 
	C1578.363770,798.194763 1589.032715,778.444397 1594.536255,756.226685 
	C1595.532104,752.206482 1595.129517,750.207275 1590.507812,748.734741 
	C1559.094849,738.726196 1527.830811,728.252014 1496.462646,718.100708 
	C1487.589722,715.229248 1489.737305,713.720459 1484.995239,723.148743 
	C1480.448486,732.189026 1476.812012,741.915833 1470.955566,750.026917 
	C1451.277954,777.280579 1423.576294,790.170837 1390.458130,791.636169 
	C1342.284302,793.767578 1296.798950,769.912231 1277.750122,719.648132 
	C1268.206543,694.465576 1266.293579,668.432617 1269.467896,641.921509 
	C1272.144775,619.565491 1279.061157,598.674622 1292.592651,580.409729 
	C1314.361328,551.025940 1344.712158,538.549194 1380.231445,536.708496 
	C1427.520752,534.257812 1467.094360,561.900085 1481.197021,607.047852 
	C1481.728271,608.748596 1482.349854,610.421143 1483.100098,612.603210 
	C1519.873901,600.559448 1556.322021,588.622314 1593.103027,576.576172 
	C1591.492920,570.684082 1590.383545,565.278809 1588.552124,560.130310 
	C1570.159424,508.425629 1535.674072,470.720490 1486.823120,446.670685 
	C1433.520996,420.429626 1377.408813,416.093353 1320.316650,431.265686 
	C1247.741455,450.552582 1194.725586,493.911865 1164.695435,563.534241 
	C1149.735840,598.216492 1144.608398,634.822144 1145.661255,672.422119 
	C1146.979248,719.493042 1159.260742,763.205933 1186.087402,802.241943 
	C1216.868408,847.032227 1259.115967,876.355225 1311.290405,893.202820 
M718.448914,454.057617 
	C668.156433,426.018890 614.545105,417.530060 558.095093,427.790894 
	C520.038269,434.708374 486.441925,450.952362 460.240295,480.041199 
	C431.293640,512.177612 418.200867,549.731506 426.062317,592.960693 
	C433.031799,631.284912 455.679535,658.862549 488.309906,678.872620 
	C511.228546,692.927185 536.730957,699.912903 562.593201,706.003479 
	C586.894836,711.726440 611.182617,717.541870 635.324890,723.892883 
	C646.488586,726.829651 656.902161,731.818420 665.218994,740.310486 
	C678.591064,753.964417 679.637146,772.396240 667.806213,787.420410 
	C661.097534,795.939758 652.338257,801.742859 642.140686,804.891357 
	C614.551636,813.409424 587.130859,812.487427 560.597046,800.941223 
	C538.732239,791.426697 525.154785,774.440857 519.448486,751.253235 
	C518.741150,748.379028 518.233826,745.455627 517.549316,742.146729 
	C482.551971,749.490479 447.908295,756.760010 412.981171,764.088989 
	C414.159119,780.320862 418.284027,795.300110 425.342438,809.435425 
	C439.946167,838.681274 463.106262,859.446228 491.303955,874.992981 
	C522.301147,892.083252 555.712341,901.195374 590.904480,903.525574 
	C637.672791,906.622253 682.438171,898.928772 723.268311,875.044922 
	C769.637085,847.921082 793.342651,806.749695 792.038025,753.082947 
	C790.751770,700.174866 763.882996,662.350464 717.601746,637.870422 
	C697.727600,627.358215 676.411926,620.697510 654.502075,616.099487 
	C630.709290,611.106323 606.752563,606.895996 582.948242,601.954529 
	C571.672119,599.613647 560.692139,596.055786 551.245056,589.057556 
	C539.983521,580.715149 535.818298,569.293884 537.688538,555.698303 
	C539.611938,541.715515 548.500427,532.620056 560.406311,526.518738 
	C585.017090,513.906616 610.713257,513.304260 636.590820,521.792419 
	C659.310181,529.244629 675.781372,543.414673 681.836914,567.614868 
	C682.319336,569.542847 683.267456,571.350464 683.824707,573.264771 
	C684.584900,575.876282 686.072876,576.477051 688.694946,575.871765 
	C720.014343,568.641602 751.345154,561.460022 782.700134,554.386108 
	C785.632019,553.724670 786.793213,552.390198 786.058960,549.589294 
	C783.073975,538.202759 781.327881,526.274719 776.742065,515.566895 
	C765.090088,488.359589 744.095581,469.352264 718.448914,454.057617 
z"/>
<path fill="#FDFDFE" opacity="1.000000" stroke="none" 
	d="
M1310.906494,893.098022 
	C1259.115967,876.355225 1216.868408,847.032227 1186.087402,802.241943 
	C1159.260742,763.205933 1146.979248,719.493042 1145.661255,672.422119 
	C1144.608398,634.822144 1149.735840,598.216492 1164.695435,563.534241 
	C1194.725586,493.911865 1247.741455,450.552582 1320.316650,431.265686 
	C1377.408813,416.093353 1433.520996,420.429626 1486.823120,446.670685 
	C1535.674072,470.720490 1570.159424,508.425629 1588.552124,560.130310 
	C1590.383545,565.278809 1591.492920,570.684082 1593.103027,576.576172 
	C1556.322021,588.622314 1519.873901,600.559448 1483.100098,612.603210 
	C1482.349854,610.421143 1481.728271,608.748596 1481.197021,607.047852 
	C1467.094360,561.900085 1427.520752,534.257812 1380.231445,536.708496 
	C1344.712158,538.549194 1314.361328,551.025940 1292.592651,580.409729 
	C1279.061157,598.674622 1272.144775,619.565491 1269.467896,641.921509 
	C1266.293579,668.432617 1268.206543,694.465576 1277.750122,719.648132 
	C1296.798950,769.912231 1342.284302,793.767578 1390.458130,791.636169 
	C1423.576294,790.170837 1451.277954,777.280579 1470.955566,750.026917 
	C1476.812012,741.915833 1480.448486,732.189026 1484.995239,723.148743 
	C1489.737305,713.720459 1487.589722,715.229248 1496.462646,718.100708 
	C1527.830811,728.252014 1559.094849,738.726196 1590.507812,748.734741 
	C1595.129517,750.207275 1595.532104,752.206482 1594.536255,756.226685 
	C1589.032715,778.444397 1578.363770,798.194763 1564.906006,816.364929 
	C1525.372192,869.742249 1471.909790,898.306641 1406.015747,903.938110 
	C1373.767700,906.694031 1342.182007,902.814209 1310.906494,893.098022 
z"/>
<path fill="#FDFDFE" opacity="1.000000" stroke="none" 
	d="
M718.761719,454.245941 
	C744.095581,469.352264 765.090088,488.359589 776.742065,515.566895 
	C781.327881,526.274719 783.073975,538.202759 786.058960,549.589294 
	C786.793213,552.390198 785.632019,553.724670 782.700134,554.386108 
	C751.345154,561.460022 720.014343,568.641602 688.694946,575.871765 
	C686.072876,576.477051 684.584900,575.876282 683.824707,573.264771 
	C683.267456,571.350464 682.319336,569.542847 681.836914,567.614868 
	C675.781372,543.414673 659.310181,529.244629 636.590820,521.792419 
	C610.713257,513.304260 585.017090,513.906616 560.406311,526.518738 
	C548.500427,532.620056 539.611938,541.715515 537.688538,555.698303 
	C535.818298,569.293884 539.983521,580.715149 551.245056,589.057556 
	C560.692139,596.055786 571.672119,599.613647 582.948242,601.954529 
	C606.752563,606.895996 630.709290,611.106323 654.502075,616.099487 
	C676.411926,620.697510 697.727600,627.358215 717.601746,637.870422 
	C763.882996,662.350464 790.751770,700.174866 792.038025,753.082947 
	C793.342651,806.749695 769.637085,847.921082 723.268311,875.044922 
	C682.438171,898.928772 637.672791,906.622253 590.904480,903.525574 
	C555.712341,901.195374 522.301147,892.083252 491.303955,874.992981 
	C463.106262,859.446228 439.946167,838.681274 425.342438,809.435425 
	C418.284027,795.300110 414.159119,780.320862 412.981171,764.088989 
	C447.908295,756.760010 482.551971,749.490479 517.549316,742.146729 
	C518.233826,745.455627 518.741150,748.379028 519.448486,751.253235 
	C525.154785,774.440857 538.732239,791.426697 560.597046,800.941223 
	C587.130859,812.487427 614.551636,813.409424 642.140686,804.891357 
	C652.338257,801.742859 661.097534,795.939758 667.806213,787.420410 
	C679.637146,772.396240 678.591064,753.964417 665.218994,740.310486 
	C656.902161,731.818420 646.488586,726.829651 635.324890,723.892883 
	C611.182617,717.541870 586.894836,711.726440 562.593201,706.003479 
	C536.730957,699.912903 511.228546,692.927185 488.309906,678.872620 
	C455.679535,658.862549 433.031799,631.284912 426.062317,592.960693 
	C418.200867,549.731506 431.293640,512.177612 460.240295,480.041199 
	C486.441925,450.952362 520.038269,434.708374 558.095093,427.790894 
	C614.545105,417.530060 668.156433,426.018890 718.761719,454.245941 
z"/>
<path fill="#FDFDFD" opacity="1.000000" stroke="none" 
	d="
M986.859863,554.805176 
	C986.895020,570.451050 986.937012,586.096924 986.963989,601.742798 
	C987.043396,647.728394 987.049866,693.714355 987.279175,739.699219 
	C987.307251,745.322021 988.092163,751.028564 989.255188,756.542603 
	C993.794067,778.063354 1006.706665,789.996887 1028.848389,793.976746 
	C1051.053711,797.968018 1072.284302,795.238159 1092.617065,785.430115 
	C1097.682251,782.986938 1102.836792,780.728760 1108.503052,778.132202 
	C1108.649292,780.115295 1108.852783,781.513611 1108.840698,782.910095 
	C1108.577393,813.062683 1108.220947,843.214783 1108.100952,873.367798 
	C1108.087036,876.851501 1106.858765,878.795349 1104.094116,880.591492 
	C1085.565063,892.629150 1065.020264,899.049561 1043.402100,902.316833 
	C1012.449829,906.994690 981.878174,905.417419 952.168701,895.025146 
	C903.175903,877.887695 874.239563,843.630066 868.381592,791.936707 
	C865.635742,767.706482 866.191467,743.078857 865.702148,718.622375 
	C865.168884,691.974609 864.966614,665.316284 864.974304,638.662659 
	C864.982056,612.009644 865.423767,585.356750 865.696899,558.704041 
	C865.706909,557.723450 865.945801,556.745300 866.189026,554.944275 
	C906.143738,554.944275 946.086487,554.944275 986.470093,554.903687 
	C986.911011,554.863037 986.859863,554.805176 986.859863,554.805176 
z"/>
<path fill="#FEFEFE" opacity="1.000000" stroke="none" 
	d="
M986.904419,314.990723 
	C986.992310,320.963287 987.154297,326.935791 987.155823,332.908386 
	C987.164551,366.966888 987.135010,401.025360 986.549805,435.541077 
	C962.414062,435.998474 938.846863,435.973999 915.279907,436.041412 
	C913.188232,436.047394 911.098206,436.651794 909.007446,436.978271 
	C895.307739,437.018768 881.608032,437.059296 867.298584,436.829346 
	C866.474487,436.339905 866.235229,436.152740 865.971069,435.997345 
	C865.872131,434.180756 865.687012,432.364136 865.687073,430.547546 
	C865.687622,393.009399 865.709229,355.471283 866.086792,317.321411 
	C866.972168,315.714630 867.497620,314.719543 868.023071,313.724457 
	C869.005920,313.608734 869.989136,313.389587 870.971619,313.392212 
	C909.035156,313.494354 947.098694,313.616730 985.709106,314.050781 
	C986.444763,314.601959 986.660889,314.810516 986.904419,314.990723 
z"/>
<path fill="#FCFCFD" opacity="1.000000" stroke="none" 
	d="
M909.383728,437.135468 
	C911.098206,436.651794 913.188232,436.047394 915.279907,436.041412 
	C938.846863,435.973999 962.414062,435.998474 986.443848,435.999237 
	C988.767822,436.380493 990.628601,437.089264 992.490662,437.092560 
	C1029.137573,437.157776 1065.784546,437.141022 1102.431519,437.140991 
	C1104.387207,437.140991 1106.343018,437.140991 1108.567627,437.140991 
	C1108.567627,476.595947 1108.567627,515.491150 1108.567627,555.156982 
	C1068.236206,555.156982 1028.008423,555.156982 987.320312,554.981079 
	C986.859863,554.805176 986.911011,554.863037 986.936157,554.886475 
	C986.961243,515.969727 986.961243,477.029510 986.961243,437.292694 
	C960.924500,437.292694 935.342285,437.292694 909.383728,437.135468 
z"/>
<path fill="#FCFCFD" opacity="1.000000" stroke="none" 
	d="
M867.749023,313.590393 
	C867.497620,314.719543 866.972168,315.714630 866.196655,316.865265 
	C866.455933,315.832642 866.965454,314.644470 867.749023,313.590393 
z"/>
<path fill="#FCFCFD" opacity="1.000000" stroke="none" 
	d="
M986.941406,314.699463 
	C986.660889,314.810516 986.444763,314.601959 986.127563,314.179413 
	C986.325562,314.131897 986.651978,314.270050 986.941406,314.699463 
z"/>
<path fill="#FCFCFD" opacity="1.000000" stroke="none" 
	d="
M865.955933,436.294006 
	C866.235229,436.152740 866.474487,436.339905 866.838013,436.731873 
	C866.638367,436.800110 866.289612,436.695404 865.955933,436.294006 
z"/>
</svg>